<svg xmlns="http://www.w3.org/2000/svg" viewBox="0 0 194.7 21">
    <g>
        <path d="M35.6,0l-6.7,21h-7.6L17.9,9.8L14.3,21H6.7L0,0h7.3L11,11.9L14.8,0h6.5L25,12.1L28.9,0H35.6z"/>
        <path d="M50.7,17.3h-8L41.3,21h-7.2l9.2-21h7l9.2,21h-7.3L50.7,17.3z M48.8,12.2l-2-5.3l-2,5.3H48.8z"/>
        <path d="M64.1,5.5h-6.1V0h19.4v5.5h-6.2V21h-7.1V5.5z"/>
        <path d="M96.6,15.7V21H79.1V0h17.1v5.3H86.1v2.5H95v5.1h-8.9v2.8H96.6z"/>
        <path d="M108.3,15.7h-1.9V21h-7.1V0h10.1c1.9,0,3.6,0.3,5.1,1c1.4,0.6,2.6,1.6,3.3,2.8
		c0.8,1.2,1.2,2.6,1.2,4.2c0,1.5-0.3,2.8-1,3.9c-0.7,1.1-1.7,2-2.9,2.7l4.4,6.5h-7.6L108.3,15.7z M111.1,6.1
		c-0.5-0.4-1.2-0.6-2.2-0.6h-2.6v4.9h2.6c1,0,1.7-0.2,2.2-0.6c0.5-0.4,0.7-1,0.7-1.8C111.9,7.1,111.6,6.5,111.1,6.1z"/>
    </g>
    <g fill="#ffc517">
        <path d="M140.4,21l-0.1-9.6l-4.6,7.7h-3.1l-4.6-7.4V21h-6.5V0h5.8l6.8,11.2L141,0h5.8l0.1,21H140.4z"/>
        <path d="M164.6,17.3h-8l-1.4,3.7H148l9.2-21h7l9.2,21H166L164.6,17.3z M162.7,12.2l-2-5.3l-2,5.3H162.7z"/>
        <path d="M186.6,21l-3.6-5.6l-3.5,5.6h-8.1l7.6-10.6L171.6,0h8l3.6,5.3l3.5-5.3h7.6l-7.3,10.1l7.7,10.9H186.6z"/>
    </g>
</svg>