<svg xmlns="http://www.w3.org/2000/svg"><symbol id="developer" viewBox="0 0 109 67"><path d="M56.6 25.7c.4.6.7 1.3.7 2.2 0 1.3-.5 2.2-1.5 3-1 .7-2.4 1-4.2 1H44V17.5h7.2c1.8 0 3.1.4 4.1 1s1.4 1.6 1.4 2.7c0 .7-.2 1.3-.5 1.8s-.8 1-1.4 1.3c.8.4 1.4.8 1.8 1.4zm-8.1-4.9V23h2.1c1 0 1.5-.4 1.5-1.1s-.5-1.1-1.5-1.1h-2.1zm4.2 6.6c0-.8-.5-1.1-1.5-1.1h-2.7v2.3h2.7c1-.1 1.5-.5 1.5-1.2zM64.5 28.3h-1.2v3.6h-4.5V17.5h6.5c1.3 0 2.3.2 3.3.7s1.6 1.1 2.1 1.9c.5.8.7 1.8.7 2.9 0 1-.2 1.9-.7 2.7s-1.1 1.4-1.9 1.8l2.8 4.5h-4.9l-2.2-3.7zm1.8-6.6c-.3-.3-.8-.4-1.4-.4h-1.7v3.4h1.7c.6 0 1.1-.1 1.4-.4.3-.3.5-.7.5-1.3-.1-.6-.2-1.1-.5-1.3z"/><path d="M82 29.4h-5.1l-.9 2.5h-4.6l5.9-14.4h4.5l5.9 14.4H83l-1-2.5zm-1.2-3.5l-1.3-3.6-1.3 3.6h2.6zM88.2 17.5h4.5v14.4h-4.5V17.5zM108 17.5v14.4h-3.7l-5.1-6.6v6.6h-4.4V17.5h3.7l5.1 6.6v-6.6h4.4zM33.7 35.2L28 53h-6.4l-2.9-9.5-3 9.5H9.2L3.5 35.2h6.2l3.1 10.1 3.3-10.1h5.5l3.1 10.2L28 35.2h5.7zM38.7 52.2c-1.5-.8-2.7-1.9-3.6-3.3-.9-1.4-1.3-3-1.3-4.8 0-1.8.4-3.4 1.3-4.8s2.1-2.5 3.6-3.3c1.5-.8 3.3-1.2 5.2-1.2s3.6.4 5.2 1.2c1.5.8 2.7 1.9 3.6 3.3.9 1.4 1.3 3 1.3 4.8 0 1.8-.4 3.4-1.3 4.8s-2.1 2.5-3.6 3.3c-1.5.8-3.3 1.2-5.2 1.2-1.9 0-3.7-.4-5.2-1.2zm7.2-4.2c.6-.4 1.1-.9 1.4-1.6.4-.7.5-1.4.5-2.4s-.2-1.7-.5-2.4c-.4-.7-.8-1.2-1.4-1.6-.6-.4-1.3-.5-2-.5s-1.4.2-2 .5c-.6.4-1.1.9-1.4 1.6-.4.7-.5 1.4-.5 2.4s.2 1.7.5 2.4c.4.7.8 1.2 1.4 1.6.6.4 1.3.5 2 .5s1.4-.2 2-.5zM63.5 48.5h-1.6V53h-6V35.2h8.6c1.6 0 3.1.3 4.3.8s2.2 1.3 2.8 2.3c.7 1 1 2.2 1 3.6 0 1.3-.3 2.4-.9 3.3-.6 1-1.4 1.7-2.5 2.3L73 53h-6.4l-3.1-4.5zm2.4-8.1c-.4-.4-1-.5-1.8-.5h-2.2V44h2.2c.8 0 1.4-.2 1.8-.5.4-.4.6-.9.6-1.5 0-.8-.1-1.3-.6-1.6zM81.9 47.1l-1.3 1.5V53h-5.9V35.2h5.9v6.5l5.9-6.5H93L85.9 43l7.5 10h-6.9l-4.6-5.9z"/><path d="M96.4 52.9c-1.4-.3-2.5-.8-3.4-1.3l1.9-4.4c.8.5 1.8.9 2.8 1.2 1 .3 2.1.4 3 .4.8 0 1.4-.1 1.8-.2.4-.2.5-.4.5-.7 0-.4-.2-.7-.7-.8-.5-.2-1.2-.4-2.3-.6-1.4-.3-2.5-.6-3.4-.9-.9-.3-1.7-.9-2.4-1.6-.7-.8-1-1.8-1-3.1 0-1.1.3-2.1.9-3 .6-.9 1.6-1.6 2.8-2.2 1.3-.5 2.8-.8 4.5-.8 1.2 0 2.4.1 3.6.4 1.2.3 2.2.7 3.1 1.1l-1.8 4.3c-1.8-.9-3.4-1.3-5-1.3-1.5 0-2.3.4-2.3 1.1 0 .4.2.6.7.8.5.2 1.2.4 2.3.6 1.4.2 2.5.5 3.4.9.9.3 1.8.9 2.4 1.6.7.7 1 1.8 1 3 0 1.1-.3 2.1-.9 3-.6.9-1.6 1.6-2.8 2.2-1.3.5-2.8.8-4.5.8-1.4 0-2.8-.2-4.2-.5zM11 63.1h14.9c.4-.2.6-.7.6-1.1v-.5c0-.7-.6-1.3-1.3-1.3.7 0 1.3-.6 1.3-1.3v-.4c0-.7-.6-1.3-1.3-1.3.7 0 1.3-.6 1.3-1.3v-.4c0-.7-.6-1.3-1.3-1.3H11.7c-.7 0-1.3.6-1.3 1.3v.4c0 .7.6 1.3 1.3 1.3-.7 0-1.3.6-1.3 1.3v.4c0 .7.6 1.3 1.3 1.3-.7 0-1.3.6-1.3 1.3v.5c-.1.5.2.9.6 1.1zm2.6-7.3h9.6c.5 0 1 .4 1 1 0 .5-.4 1-1 1h-9.6c-.5 0-1-.4-1-1s.5-1 1-1zm0 3.4h6.6c.5 0 1 .4 1 1s-.4 1-1 1h-6.6c-.5 0-1-.4-1-1s.5-1 1-1zM13.5 64.1c.8 1.3 2.7 2.3 5 2.3s4.2-1 5-2.3h-10zM37.1 17.7C36.3 3.2 23.4 0 18.5 0 13.6 0 .8 3.2 0 17.7c0 5.3 2.4 9.5 4.2 12.5 1 1.7 1.8 3.1 1.8 4h1.4c0-1.3-.9-2.9-2-4.8-1.8-3-4-6.8-4-11.7C2.2 4.4 14 1.5 18.5 1.5c4.5 0 16.4 2.9 17.1 16.3 0 4.9-2.2 8.7-4 11.7-1.1 1.9-2 3.5-2 4.8H31c0-.9.8-2.4 1.8-4 1.9-3.1 4.3-7.2 4.3-12.6z"/><path d="M22 30.8c-.7 0-1.3.6-1.3 1.3s.6 1.3 1.3 1.3c.6 0 1-.4 1.2-.9 1.2-.4 2.8-1.6 4.5-4.3 1.3-2 .8-3.1-.4-4.5-1.4-1.5-2.8-2.3-3.8-2.8-.5-.2-1.1-.5-1.7-.1-.6.4-.6 1.1-.6 1.7v3.1c0 .3.2.5.5.5s.5-.2.5-.5v-3.1c0-.6.1-.8.2-.9 0 0 .2-.1.7.2.9.4 2.3 1.2 3.5 2.5 1 1.1 1.3 1.8.3 3.3-1.3 1.9-2.6 3.3-3.8 3.8-.3-.3-.7-.6-1.1-.6zm1.2 1.4v-.1.1zm0 .2zm0-.1zm0-.5zm0 .2c0-.1 0-.1 0 0z"/><path d="M19.1 19.8V30c0 1 .5 1.9 1.3 2.4v-.2c0-.3.1-.6.3-.9-.4-.4-.5-.9-.5-1.3V19.8c0-.5 0-1.6.2-1.7 0 0 .1 0 .2.1 1 .5 3.2 1.6 4.6 2.8.4.3.7.6 1 .8 1.4 1.1 2.1 1.8 2.9 1.4.6-.2.8-1 .9-1.8.4-2.5.4-4.4 0-6.3 0-.1-.1-.2-.1-.4.3-.2.5-.6.5-1 0-.7-.6-1.3-1.3-1.3-.7 0-1.3.6-1.3 1.3 0 .7.5 1.2 1.1 1.3v.1c.5 1.9.5 3.7.1 6.2-.1.9-.3 1-.3 1-.2.1-1.2-.7-1.9-1.3-.3-.2-.7-.5-1-.8-1.4-1.1-3.4-2.2-4.8-2.9-.5-.2-.9-.2-1.2 0-.7.3-.7 1.4-.7 2.5zm10.7-5s.1 0 0 0c.1 0 0 0 0 0zm-.4.2s.1 0 0 0zm.1 0s0-.1 0 0c0-.1 0 0 0 0zm.1-.1c.1 0 .1 0 0 0 .1 0 .1 0 0 0zm.1 0c.1 0 .1-.1 0 0 .1 0 0 0 0 0zm-.5.1h-.1.1zm.1 0zM18.6 17.2c.6 0 1.1-.5 1.2-1.1.4-.2.8-.4 1.2-.8.1-.1.2-.2.1-.4 0-.1-.1-.3-.2-.4-.2-.1-.3-.2-.4-.3-.6-.4-.6-.4-.6-1.8V8.7c0-.8.4-1.2 1.1-1.4 2.7-.5 5.7 2.5 7 5.2.2-.2.6-.3.9-.4-.8-1.8-2.1-3.3-3.6-4.4-1.3-.9-2.7-1.4-3.9-1.4-.2 0-.4 0-.6.1-1.2.2-2 1.1-2 2.3v3.9c0 1.6.1 1.9.9 2.4-.1.1-.2.1-.3.1-.1-.3-.5-.5-.9-.5-.7 0-1.3.6-1.3 1.3s.7 1.3 1.4 1.3zm1.2-1.2v-.1-.1.2zm0-.3s0 .1 0 0c0 .1 0 0 0 0zm0-.2zm0 .2c0-.1 0-.1 0 0 0-.1 0-.1 0 0zM7.7 23.2c.3.2.8.4 1.5-.2l2.9-2.4c3.6-2.7 4.5-2.5 4.7-2.4.2.1.2.8.2 1.3v10.4c0 .4-.1.9-.4 1.2-.2-.2-.5-.2-.7-.2-.7 0-1.3.6-1.3 1.3s.6 1.3 1.3 1.3 1.3-.6 1.3-1.3v-.1c.5-.5.8-1.2.8-2.1V19.8v-.2c0-.8 0-1.8-.8-2.2-1-.5-2.7.2-5.7 2.5l-3 2.4c-.2.2-.3.2-.3.2-.1 0-.5-.7-.4-3.2.1-1.2.2-2.6.5-3.8h-.2c-.3 0-.5-.1-.7-.2-.7 3-.9 7.1.3 7.9z"/><path d="M9.3 27.6c2.2 2.8 3.9 4.2 5.2 4.7v-.2c0-.3.1-.6.2-.8-1.3-.6-2.9-2.1-4.6-4.3-.1-.1-.2-.4-.1-.6.1-1 1.4-2.5 3.3-3.9 1.4-1 1.8-.9 1.8-.9.1.1.1.8.1 1V25c-.5.2-.8.6-.8 1.1 0 .7.6 1.3 1.3 1.3.7 0 1.3-.6 1.3-1.3 0-.5-.3-1-.8-1.1v-2-.4c0-.7.1-1.6-.6-1.9-.6-.3-1.5 0-2.8 1-2.2 1.6-3.6 3.2-3.7 4.6-.2.5-.1 1 .2 1.3zM8.1 15c.7 0 1.3-.6 1.3-1.3 0-.3-.1-.7-.4-.9C10.6 9 14.1 7 16.1 7.3c.8.1 1.2.6 1.2 1.3v3.9c0 .7-.3 1.7-1 1.9-.2 0-.3.2-.4.4-.1.2 0 .4.1.5.3.3.6.5.9.7 0-.6.3-1.1.7-1.4.4-.6.6-1.4.6-2V8.7c0-1.3-.8-2.1-2-2.3C14 6 9.9 8 8.2 12.5c-.7 0-1.3.6-1.3 1.3-.1.7.5 1.2 1.2 1.2zm.2-2.5zm.4.2zm-.1-.1zm-.1 0zm-.1-.1z"/></symbol><symbol id="logo" viewBox="0 0 194.7 21"><path d="M35.6 0l-6.7 21h-7.6L17.9 9.8 14.3 21H6.7L0 0h7.3L11 11.9 14.8 0h6.5L25 12.1 28.9 0h6.7zM50.7 17.3h-8L41.3 21h-7.2l9.2-21h7l9.2 21h-7.3l-1.5-3.7zm-1.9-5.1l-2-5.3-2 5.3h4zM64.1 5.5H58V0h19.4v5.5h-6.2V21h-7.1V5.5zM96.6 15.7V21H79.1V0h17.1v5.3H86.1v2.5H95v5.1h-8.9v2.8h10.5zM108.3 15.7h-1.9V21h-7.1V0h10.1c1.9 0 3.6.3 5.1 1 1.4.6 2.6 1.6 3.3 2.8.8 1.2 1.2 2.6 1.2 4.2 0 1.5-.3 2.8-1 3.9s-1.7 2-2.9 2.7l4.4 6.5h-7.6l-3.6-5.4zm2.8-9.6c-.5-.4-1.2-.6-2.2-.6h-2.6v4.9h2.6c1 0 1.7-.2 2.2-.6.5-.4.7-1 .7-1.8.1-.9-.2-1.5-.7-1.9z"/><g fill="#ffc517"><path d="M140.4 21l-.1-9.6-4.6 7.7h-3.1l-4.6-7.4V21h-6.5V0h5.8l6.8 11.2L141 0h5.8l.1 21h-6.5zM164.6 17.3h-8l-1.4 3.7H148l9.2-21h7l9.2 21H166l-1.4-3.7zm-1.9-5.1l-2-5.3-2 5.3h4z"/><path d="M186.6 21l-3.6-5.6-3.5 5.6h-8.1l7.6-10.6L171.6 0h8l3.6 5.3 3.5-5.3h7.6L187 10.1l7.7 10.9h-8.1z"/></g></symbol></svg>